# xmcd CD database file
#
# Track frame offsets:
#	150
#	18233
#	38018
#	56105
#	74863
#	95650
#	123708
#	144523
#	163865
#	187100
#
# Disc length: 2593 seconds
#
# Revision: 12
# Processed by: cddbd v1.5.2PL0 Copyright (c) Steve Scherf et al.
# Submitted via: CDex 1.70beta2
#
DISCID=9a0a1f0a
DTITLE=Michael W. Smith - Go West Young Man
DYEAR=1990
DGENRE=Christian Rock
TTITLE0=Go West Young Man
TTITLE1=Love Crusade
TTITLE2=Place in This World
TTITLE3=For You
TTITLE4=How Long Will Be Too Long
TTITLE5=Seed to Sow
TTITLE6=Cross My Heart
TTITLE7=Emily
TTITLE8=Agnus Dei
TTITLE9=1990 -
EXTD=YEAR: 1990
EXTT0=
EXTT1=
EXTT2=
EXTT3=
EXTT4=
EXTT5=
EXTT6=
EXTT7=
EXTT8=
EXTT9=
PLAYORDER=
